#!OML:ASF F:\VICON\USERDATA\INSTALL\Justin_Nancy\Justin_Nancy.ASF
:FULLY-SPECIFIED
:DEGREES
114
root -8.51088 17.3665 -18.1801 -1.26882 -4.39122 5.37296
lowerback 7.20327 -0.232109 -5.83916
upperback 0.453869 -0.739226 1.20236
thorax -3.48379 -0.268859 4.61426
lowerneck -17.2657 -3.01015 -9.43315
upperneck 21.5824 -2.88786 5.3741
head 9.93677 -1.50095 3.07159
rclavicle 1.3418e-015 2.62396e-014
rhumerus -34.0174 -18.8171 -75.04
rradius 25.8968
rwrist 11.7387
rhand -12.662 13.9371
rfingers 7.12502
rthumb 13.419 -15.6107
lclavicle 1.3418e-015 2.62396e-014
lhumerus -26.2159 8.72685 83.5913
lradius 25.3018
lwrist -11.2504
lhand -20.4089 18.3107
lfingers 7.12502
lthumb 5.94501 48.2073
rfemur -31.1117 -5.0095 16.7173
rtibia 60.0959
rfoot -7.00712 -5.28368
rtoes 2.39929
lfemur -6.82096 0.478017 -30.1603
ltibia 25.9404
lfoot -15.1592 -4.13203
ltoes 5.66455
115
root -8.51541 17.3717 -18.0456 -1.0533 -4.12678 5.54036
lowerback 7.21813 -0.302934 -6.01964
upperback 0.374496 -0.853538 1.13659
thorax -3.55951 -0.318757 4.65993
lowerneck -17.4447 -3.07985 -9.32171
upperneck 21.7315 -3.01224 5.40745
head 10.0322 -1.54508 3.04947
rclavicle 2.98177e-016 -1.51076e-014
rhumerus -34.386 -18.7746 -75.0866
rradius 26.2673
rwrist 11.4113
rhand -12.6689 13.2313
rfingers 7.12502
rthumb 13.4124 -16.3169
lclavicle 2.98177e-016 -1.51076e-014
lhumerus -25.9816 8.28695 83.577
lradius 25.7969
lwrist -10.742
lhand -18.8499 21.405
lfingers 7.12502
lthumb 7.45007 51.2538
rfemur -31.547 -5.11773 16.6647
rtibia 57.9292
rfoot -7.0696 -5.91206
rtoes 1.8898
lfemur -6.41742 0.508763 -30.3433
ltibia 25.6803
lfoot -15.3843 -4.39893
ltoes 6.79679
116
root -8.51509 17.3701 -17.9057 -1.00638 -3.86273 5.70926
lowerback 7.30761 -0.401726 -6.13748
upperback 0.367948 -1.00332 1.06776
thorax -3.59723 -0.390314 4.67097
lowerneck -17.4127 -3.18639 -9.08237
upperneck 21.5045 -3.18472 5.2389
head 9.95248 -1.62166 2.92152
rclavicle -2.15681e-014 3.18055e-015
rhumerus -34.6571 -18.9539 -75.0011
rradius 26.3176
rwrist 11.6249
rhand -12.8056 12.5006
rfingers 7.12502
rthumb 13.2806 -17.0563
lclavicle -2.15681e-014 3.18055e-015
lhumerus -25.6769 7.84724 83.5682
lradius 26.1758
lwrist -10.488
lhand -18.2752 22.8872
lfingers 7.12502
lthumb 8.00473 52.7156
rfemur -31.7238 -5.25998 16.5564
rtibia 55.5865
rfoot -7.1967 -6.48518
rtoes 1.05081
lfemur -5.8269 0.649579 -30.5408
ltibia 25.4541
lfoot -15.755 -4.72618
ltoes 6.69327
117
root -8.52027 17.3666 -17.7718 -1.10741 -3.73265 5.65745
lowerback 7.44114 -0.481234 -6.1401
upperback 0.522881 -1.1105 1.161
thorax -3.4949 -0.450405 4.78167
lowerneck -17.7059 -2.9197 -9.42875
upperneck 21.835 -2.79587 5.65679
head 10.1044 -1.42315 3.18865
rclavicle -2.48481e-015 8.74653e-015
rhumerus -34.4742 -19.1929 -74.83
rradius 26.0151
rwrist 11.9475
rhand -12.7789 12.5099
rfingers 7.12502
rthumb 13.3063 -17.0453
lclavicle -2.48481e-015 8.74653e-015
lhumerus -25.1648 7.60437 83.6794
lradius 26.4357
lwrist -10.2467
lhand -18.2482 23.1442
lfingers 7.12502
lthumb 8.03081 52.9716
rfemur -31.6722 -5.07308 16.7023
rtibia 53.0486
rfoot -7.23009 -7.23159
rtoes 0.385195
lfemur -5.08958 0.641968 -30.492
ltibia 25.2436
lfoot -16.1371 -4.77384
ltoes 6.01105
118
root -8.52724 17.3612 -17.6421 -0.854942 -3.68953 5.41982
lowerback 7.28113 -0.491079 -5.91093
upperback 0.57901 -1.09106 1.21796
thorax -3.35201 -0.450144 4.70526
lowerneck -17.5889 -3.13938 -9.18254
upperneck 21.29 -3.11953 5.45517
head 9.90841 -1.56944 3.02064
rclavicle -2.68856e-014 2.14687e-014
rhumerus -34.4003 -19.3822 -74.7858
rradius 25.9832
rwrist 11.7569
rhand -12.8294 13.373
rfingers 7.12502
rthumb 13.2576 -16.1854
lclavicle -2.68856e-014 2.14687e-014
lhumerus -24.6537 7.2071 83.7425
lradius 26.8421
lwrist -10.0822
lhand -18.0192 23.2834
lfingers 7.12502
lthumb 8.25183 53.1023
rfemur -31.8182 -4.67895 17.0258
rtibia 50.3775
rfoot -7.36347 -7.87107
rtoes 2.07792
lfemur -4.7185 0.564619 -30.2494
ltibia 24.9661
lfoot -16.338 -4.66654
ltoes 5.62174
119
root -8.53902 17.3579 -17.5081 -0.438184 -3.71194 5.41029
lowerback 7.10874 -0.489584 -6.02846
upperback 0.366404 -1.09145 1.26022
thorax -3.47427 -0.438722 4.8156
lowerneck -17.456 -3.12755 -9.10462
upperneck 21.3319 -3.14603 5.47975
head 9.89928 -1.57493 3.01392
rclavicle 5.91384e-015 -1.59028e-015
rhumerus -34.8666 -19.4561 -74.5957
rradius 26.1495
rwrist 11.5963
rhand -12.7553 15.0563
rfingers 7.12502
rthumb 13.3291 -14.4974
lclavicle 5.91384e-015 -1.59028e-015
lhumerus -24.5816 6.84283 83.7738
lradius 27.3551
lwrist -9.81566
lhand -18.3803 22.0415
lfingers 7.12502
lthumb 7.90329 51.8738
rfemur -32.0796 -4.24521 17.0931
rtibia 47.5625
rfoot -7.33289 -8.26477
rtoes 2.63064
lfemur -4.46867 0.680823 -30.2201
ltibia 24.5777
lfoot -16.5307 -4.69014
ltoes 5.4251
